<svg xmlns="http://www.w3.org/2000/svg" width="160" height="120" viewBox="0 0 160 120">
  <g opacity=".24">
    <g transform="translate(18 14) rotate(-12 16 18)">
      <path d="M16 10C6 8 2 15 5 25c3 11 11 20 15 22 4-2 13-11 16-22 3-10-2-17-12-15-3 1-5 2-8 0Z" fill="#e64f80"/>
      <path d="M9 11c3-6 8-8 11-3 4-5 9-3 12 2-6 0-8 4-12 5-4-2-7-4-11-4Z" fill="#79a96b"/>
      <g fill="#fff1c7"><circle cx="12" cy="23" r="1.3"/><circle cx="25" cy="21" r="1.3"/><circle cx="18" cy="32" r="1.3"/><circle cx="27" cy="31" r="1.3"/></g>
    </g>
    <g transform="translate(111 65) rotate(14 14 16) scale(.78)">
      <path d="M16 10C6 8 2 15 5 25c3 11 11 20 15 22 4-2 13-11 16-22 3-10-2-17-12-15-3 1-5 2-8 0Z" fill="#d73770"/>
      <path d="M9 11c3-6 8-8 11-3 4-5 9-3 12 2-6 0-8 4-12 5-4-2-7-4-11-4Z" fill="#6e9e62"/>
      <g fill="#fff1c7"><circle cx="12" cy="23" r="1.3"/><circle cx="25" cy="21" r="1.3"/><circle cx="18" cy="32" r="1.3"/></g>
    </g>
    <path d="M75 22c5-7 14-7 19 0 5 8-2 14-9 20-8-6-15-12-10-20Z" fill="#f3a1bd"/>
    <path d="M64 84c5-7 14-7 19 0 5 8-2 14-9 20-8-6-15-12-10-20Z" fill="#f6bfd1"/>
    <circle cx="143" cy="26" r="4" fill="#f0bc4d"/>
    <circle cx="50" cy="68" r="3" fill="#e67fa2"/>
    <circle cx="101" cy="107" r="3" fill="#f0bc4d"/>
  </g>
</svg>
