<svg xmlns="http://www.w3.org/2000/svg" width="112" height="112" viewBox="0 0 112 112">
  <path d="M12 0h100v100c-15-18-26-32-48-43C41 45 25 28 12 0Z" fill="#fff3f6" opacity=".92"/>
  <path d="M54 14c-11-2-18 6-14 18 4 13 14 23 19 26 5-3 15-13 19-26 4-12-3-20-14-18-4 1-6 3-10 0Z" fill="#e34b7c" opacity=".82"/>
  <path d="M44 15c4-8 10-10 15-4 4-6 11-4 15 3-8 0-11 4-15 6-5-2-9-5-15-5Z" fill="#75a267" opacity=".86"/>
  <g fill="#fff1c8" opacity=".95"><circle cx="49" cy="30" r="1.5"/><circle cx="64" cy="28" r="1.5"/><circle cx="56" cy="40" r="1.5"/><circle cx="67" cy="41" r="1.5"/></g>
  <path d="M80 63c12 1 21 10 22 22-11-7-19-7-31-2 3-10 3-14 9-20Z" fill="#ffd7e4" opacity=".72"/>
  <circle cx="93" cy="31" r="5" fill="#f2bd4c" opacity=".78"/>
</svg>
